<svg width="11" height="11" viewBox="0 0 11 11" fill="none" xmlns="http://www.w3.org/2000/svg">
<path d="M10.8328 10.0193L8.12106 7.29639C8.81829 6.49619 9.2003 5.48938 9.2003 4.44125C9.2003 1.99238 7.13663 0 4.60015 0C2.06367 0 0 1.99238 0 4.44125C0 6.89011 2.06367 8.88249 4.60015 8.88249C5.55238 8.88249 6.45981 8.6052 7.23563 8.07882L9.96792 10.8224C10.0821 10.9369 10.2357 11 10.4003 11C10.5561 11 10.7039 10.9426 10.8162 10.8384C11.0546 10.6169 11.0622 10.2496 10.8328 10.0193ZM4.60015 1.15859C6.47501 1.15859 8.00026 2.63115 8.00026 4.44125C8.00026 6.25134 6.47501 7.72391 4.60015 7.72391C2.72529 7.72391 1.20004 6.25134 1.20004 4.44125C1.20004 2.63115 2.72529 1.15859 4.60015 1.15859Z" fill="#B3BDC3"/>
</svg>
